<?xml version="1.0" standalone="no"?>
<!DOCTYPE svg PUBLIC "-//W3C//DTD SVG 20010904//EN"
 "http://www.w3.org/TR/2001/REC-SVG-20010904/DTD/svg10.dtd">
<svg version="1.0" xmlns="http://www.w3.org/2000/svg"
 width="736.000000pt" height="736.000000pt" viewBox="0 0 736.000000 736.000000"
 preserveAspectRatio="xMidYMid meet">
<metadata>
Created by potrace 1.14, written by Peter Selinger 2001-2017
</metadata>
<g transform="translate(0.000000,736.000000) scale(0.100000,-0.100000)"
fill="#000000" stroke="none">
<path d="M5857 6233 c-2 -1 -23 -5 -48 -7 -57 -6 -227 -50 -276 -71 -320 -139
-548 -344 -688 -620 -11 -20 -13 -20 -2328 -20 -1274 0 -2317 -2 -2317 -5 0
-3 10 -16 23 -30 12 -14 40 -47 62 -75 22 -27 49 -59 60 -70 11 -11 59 -65
105 -120 46 -55 89 -105 95 -111 5 -6 30 -35 55 -64 25 -29 50 -58 55 -64 6
-6 35 -40 65 -76 30 -36 57 -67 60 -70 4 -3 89 -102 190 -220 101 -118 189
-220 195 -226 6 -6 27 -30 46 -54 18 -23 43 -52 54 -64 29 -32 128 -146 157
-180 l24 -28 149 173 c82 96 152 176 155 179 3 3 30 34 60 70 30 36 57 67 60
70 3 3 45 52 95 110 49 58 92 107 95 110 3 3 29 34 59 70 30 36 62 72 70 81 9
9 25 27 35 40 24 29 125 147 201 234 14 17 56 65 92 107 50 59 68 74 77 65 6
-7 36 -41 66 -77 30 -36 57 -67 60 -70 3 -3 50 -57 104 -120 54 -63 121 -142
150 -174 28 -33 67 -78 86 -100 19 -22 40 -46 45 -52 6 -6 28 -32 50 -59 22
-26 59 -69 83 -95 23 -26 52 -61 64 -76 13 -16 28 -33 34 -39 6 -5 39 -44 74
-85 35 -41 66 -77 69 -80 3 -3 28 -32 55 -65 28 -33 57 -67 65 -76 20 -20 103
-118 114 -133 5 -7 14 -3 28 14 12 14 42 50 69 80 41 48 224 260 269 313 9 10
25 29 36 41 11 13 40 47 65 76 25 29 54 64 65 76 12 12 39 44 60 70 22 26 49
57 60 69 11 13 40 47 65 75 25 29 50 58 55 64 6 6 37 43 70 81 61 72 78 91
140 160 l35 40 -5 -30 c-3 -16 -7 -41 -10 -55 -19 -93 -19 -316 0 -415 19
-101 28 -135 50 -202 24 -72 97 -231 127 -278 72 -111 198 -254 293 -333 92
-76 268 -173 388 -213 20 -7 37 -16 37 -19 0 -3 -29 -16 -65 -28 -111 -40
-278 -134 -361 -204 -55 -47 -167 -164 -211 -220 -56 -71 -153 -233 -153 -255
0 -7 -4 -13 -10 -13 -5 0 -9 -3 -8 -7 1 -5 -8 -35 -21 -68 -55 -146 -76 -269
-76 -455 0 -172 7 -227 46 -369 31 -112 118 -300 163 -352 9 -11 16 -22 16
-26 0 -6 50 -69 100 -127 66 -76 176 -169 275 -234 98 -65 296 -149 390 -166
17 -3 41 -8 55 -11 72 -15 138 -20 260 -19 125 0 175 4 240 20 14 3 32 6 40 6
8 0 21 5 28 11 6 5 12 7 12 3 0 -20 328 121 338 146 2 4 8 8 14 8 11 0 93 58
142 100 64 54 145 138 189 195 26 33 52 65 57 72 6 7 10 17 10 23 0 5 3 10 8
10 4 0 12 10 18 23 6 12 27 52 47 89 80 150 128 332 141 539 l4 56 -641 -1
c-353 -1 -646 2 -652 6 -7 4 -9 210 -8 590 1 320 2 588 2 594 1 7 25 12 64 13
67 1 243 28 267 41 8 4 18 8 23 9 61 5 351 140 387 180 3 4 30 25 61 49 84 63
203 191 264 282 16 25 33 47 36 50 12 10 96 187 116 245 46 128 71 253 77 388
2 36 -1 57 -8 58 -6 0 -295 2 -643 2 -347 1 -635 5 -639 10 -4 4 -8 296 -8
650 l-1 642 -68 1 c-37 0 -69 -1 -70 -3z"/>
</g>
</svg>
