<svg id="Layer_1" data-name="Layer 1" xmlns="http://www.w3.org/2000/svg" width="695.33" height="480.01" viewBox="0 0 695.33 480.01"><path d="M695.32,499.86c0,.59,0,1.19-.06,1.78a28,28,0,0,1-29.72,26.16l-199-12.69a67.88,67.88,0,0,1-59.83-45.55L393.32,431c-.95-2.74-1.87-5.48-2.77-8.24l-37.81-115a36.48,36.48,0,0,1,16.76-43.2,24.51,24.51,0,0,1,4.25-1.9,24.82,24.82,0,0,1,31.46,15.59l29.89,88.56-5.27-35.27a560.06,560.06,0,0,0-38.72-137l-30.59-71.76a78.67,78.67,0,0,1,.92-63.76,19.31,19.31,0,0,1,33.68-2.48l59,90.26a559.74,559.74,0,0,1,65.12,137.23l14.45,45.6a104.8,104.8,0,0,0,91.44,72.78l44.43,3.6A28,28,0,0,1,695.32,434ZM0,499.86V434a28,28,0,0,1,25.74-27.91l44.43-3.59a104.8,104.8,0,0,0,91.44-72.79l14.46-45.6a559.74,559.74,0,0,1,65.12-137.23l59-90.26a19.31,19.31,0,0,1,33.68,2.48,78.63,78.63,0,0,1,.92,63.76L304.2,194.59a560.06,560.06,0,0,0-38.72,137l-5.26,35.27,29.88-88.56a24.83,24.83,0,0,1,31.46-15.59,24.17,24.17,0,0,1,4.25,1.9,36.5,36.5,0,0,1,16.77,43.2l-37.81,115c-.91,2.76-1.83,5.5-2.78,8.24l-13.34,38.56a67.9,67.9,0,0,1-59.84,45.55l-199,12.69A28,28,0,0,1,.05,501.64c0-.59-.06-1.19-.06-1.78Z" transform="translate(0.01 -47.85)"/></svg>