<svg id="Layer_1" data-name="Layer 1" xmlns="http://www.w3.org/2000/svg" width="1020.95" height="1199.98" viewBox="0 0 1020.95 1199.98"><path d="M488.22,470.58A128.77,128.77,0,0,0,489.59,290a128.55,128.55,0,0,0-1.48-180.41c-49.75-49.86-130-50.13-180.32-1.47A128.65,128.65,0,0,0,125.88,290c-48.68,50.49-48.24,130.8,1.41,180.6a128.88,128.88,0,0,0,165.49,13.91l15-9.91,14.87,9.73c50.45,35.81,120.6,31.33,165.53-13.79ZM369.6,351.79a87.39,87.39,0,1,1,0-123.52A87.42,87.42,0,0,1,369.6,351.79Z" transform="translate(-89.49 0.03)"/><path d="M1097.5,1054.3H964.8c77.09-83.26,119.29-189.7,119.29-302.75,0-152-75.18-290.86-201.74-374.17L1016.73,145a12.69,12.69,0,0,0,1.21-10,13.25,13.25,0,0,0-5.89-7.89L1001.27,121l28.07-49.1a12.77,12.77,0,0,0-4.82-17.65L933.65,1.73A12.75,12.75,0,0,0,923.81.41a12.94,12.94,0,0,0-8,6.09L887.56,55.41l-11.74-6.94a13.54,13.54,0,0,0-10-1.37,13.17,13.17,0,0,0-8,6.12L512.35,651.6a13.06,13.06,0,0,0,4.8,17.78L536,680.24l-36.37,62.83a13.75,13.75,0,0,0-1.19,9.94,12.52,12.52,0,0,0,6,7.93l76,43.84a12.66,12.66,0,0,0,9.84,1.26A13,13,0,0,0,598.2,800l36.23-62.8,19,10.86a13,13,0,0,0,9.86,1.31,13.37,13.37,0,0,0,8-6.17L809.62,503.72A301.23,301.23,0,0,1,938.46,751.54c0,167-135.85,302.75-303,302.75H381a13.11,13.11,0,0,0-13.24,13.08V1187A13.07,13.07,0,0,0,381,1200h716.47a12.92,12.92,0,0,0,13-13V1067.37a13,13,0,0,0-13-13.08Z" transform="translate(-89.49 0.03)"/><path d="M636,984.6a13,13,0,0,0,11.45-6.47L676.22,928a12.79,12.79,0,0,0,1.22-9.79,11.8,11.8,0,0,0-6-7.86L380,741.85a13.08,13.08,0,0,0-17.77,4.86l-29,50a13.46,13.46,0,0,0-1.25,10,13.32,13.32,0,0,0,6.16,7.87L629.54,983a14.36,14.36,0,0,0,6.41,1.66Z" transform="translate(-89.49 0.03)"/></svg>