<svg id="Layer_1" data-name="Layer 1" xmlns="http://www.w3.org/2000/svg" width="503.99" height="504" viewBox="0 0 503.99 504"><path d="M138.6,471.23l-25.38,44a11.2,11.2,0,1,0,19.4,11.2l25.39-44h0a99.95,99.95,0,1,0-19.4-11.2Zm-7.78-119a76.87,76.87,0,0,1,47-36.09,77.48,77.48,0,1,1-47,36.09ZM583.05,117.93,388,202.15a3,3,0,0,1-2.36,0l-195-84.22a3,3,0,0,1,0-5.47l195-84.22a3,3,0,0,1,2.36,0l195,84.22a3,3,0,0,1,0,5.47ZM600.2,415,401,501a3,3,0,0,1-4.15-2.73V222.1a3,3,0,0,1,1.8-2.74l199.21-86a3,3,0,0,1,4.15,2.74v276.2a3,3,0,0,1-1.8,2.73ZM175.8,133.34l199.21,86a3,3,0,0,1,1.8,2.73v276.2a3,3,0,0,1-4.15,2.73L293.6,466.89h0A122.18,122.18,0,0,0,259,285.06a120.84,120.84,0,0,0-87.37-13.47V136.07a3,3,0,0,1,4.16-2.74Z" transform="translate(-98.01 -28)"/></svg>