<svg id="Layer_1" data-name="Layer 1" xmlns="http://www.w3.org/2000/svg" width="414.65" height="459.2" viewBox="0 0 414.65 459.2"><defs><style>.cls-1{fill-rule:evenodd;}</style></defs><path class="cls-1" d="M279.77,50.4a33,33,0,0,0,0,66h10.15a5.61,5.61,0,0,1,5.6,5.61V196.7c0,19-4.82,31.65-12.6,43.05-7.65,11.21-17.74,21.29-29.4,37.11V456.93a64.91,64.91,0,0,1-26.6,52.67H496.24c23.19-1.51,38.67-6.41,48-13.12s12.88-15.11,13.12-26.08c.48-21.95-15.87-54.06-38.85-88.2s-52.12-70.53-75.6-103.07c-11.74-16.27-22.06-31.5-29.58-45.32s-12.42-26.09-12.42-37.1V122h0a5.6,5.6,0,0,1,5.6-5.6h10.15a33,33,0,1,0,0-66H279.77Zm82.6,217.18a23.89,23.89,0,1,1-24,24A24,24,0,0,1,362.37,267.58Zm-61.6,57.23a21.09,21.09,0,1,1,0,42.17,21.09,21.09,0,0,1,0-42.17Zm91.7,21.87a34.13,34.13,0,1,1-34.13,34.13A34.16,34.16,0,0,1,392.47,346.68Zm76.3,69.83a23.89,23.89,0,1,1,0,47.78,23.89,23.89,0,0,1,0-47.78Zm-160.48,9.1a16.1,16.1,0,1,1-16.1,16.1A16.19,16.19,0,0,1,308.29,425.61Z" transform="translate(-142.68 -50.4)"/><path class="cls-1" d="M142.68,184.72h99.61V456.94c0,29.12-22.5,52.61-49.81,52.61s-49.8-23.5-49.8-52.61v-32.7h56.65a5.6,5.6,0,1,0,0-11.2H142.68v-55.2h56.65a5.6,5.6,0,1,0,0-11.2H142.68V291.39h56.65a5.6,5.6,0,0,0,4-9.59,5.53,5.53,0,0,0-4-1.61H142.68Z" transform="translate(-142.68 -50.4)"/></svg>