<svg id="Layer_1" data-name="Layer 1" xmlns="http://www.w3.org/2000/svg" width="560" height="560" viewBox="0 0 560 560"><path d="M556.1,0H143.9A74,74,0,0,0,70,73.9V486.1A74,74,0,0,0,143.9,560H556.1A74,74,0,0,0,630,486.1V73.9A74,74,0,0,0,556.1,0Zm6,17L441.89,137.2a3.41,3.41,0,0,0-1.1,2.63v49q77.64-77.73,155.27-155.36A56.81,56.81,0,0,1,613,73.9V94.6l-94.69,94.7H613v36.48H404.56V17h36.32v94.69L535.56,17h26.56ZM164.35,17l95.2,95.2V17H296V225.7H87V189.47h95.79l-1.27-1.36-58.63-58.63L87,93.34V67.88Q147.21,128,207.11,188a3.47,3.47,0,0,0,2.71,1.19h49.39L258,187.94l-154.09-154a56.64,56.64,0,0,1,40-17ZM138.9,543,258.54,422.8a3.6,3.6,0,0,0,1.19-2.72V370.79c0-.68-.94.76-1.28,1.18L103.94,526.48A56.63,56.63,0,0,1,87,486.1V466.67l94.77-95.12.94-1H87V334.22H296V543H259.73V447.4L204,503.15,164,543H138.9Zm417.54,0H536.67l-94.52-94.27-1.36-1.27V543H404.48V334.3H613v36.31h-94.7L613,465.3v26.13L492.9,371.54a3,3,0,0,0-2.47-1h-49L596.83,526.06a56.8,56.8,0,0,1-40.72,17Z" transform="translate(-70)"/></svg>