<svg id="Layer_1" data-name="Layer 1" xmlns="http://www.w3.org/2000/svg" width="257.74" height="493.05" viewBox="0 0 257.74 493.05"><path d="M348.77,33.43a11.19,11.19,0,0,0-10,11.37v56H321A11.19,11.19,0,0,0,310.8,112v56A11.2,11.2,0,0,0,322,179.2h.35c-5.25,40.12-11.07,79.44-18.9,117.6H294a9.19,9.19,0,0,0-1.05,0A11.21,11.21,0,1,0,294,319.2h4.55q-7.2,31.37-16.8,61.6H266a9.19,9.19,0,0,0-1.05,0A11.21,11.21,0,1,0,266,403.2h8.22C261,440.11,244.47,475.51,223,509.08a11.19,11.19,0,0,0,9.45,17.32h72.8a11.2,11.2,0,0,0,11.2-11.2V504a33.6,33.6,0,0,1,67.2,0v11.2a11.19,11.19,0,0,0,11.2,11.2h22.4a11.2,11.2,0,1,0,0-22.4H406a56,56,0,0,0-112,0H251.82c18.95-32.35,33.83-66,45.85-100.8H402c14.08,41,32.09,80.58,56.18,118.12a11.26,11.26,0,1,0,18.9-12.25c-21.53-33.56-38.06-69-51.28-105.88H434a11.2,11.2,0,1,0,0-22.4H418.25q-9.58-30.18-16.8-61.6H406a11.2,11.2,0,1,0,0-22.4h-9.45c-7.84-38.15-13.66-77.48-18.9-117.6H378A11.2,11.2,0,0,0,389.2,168V112A11.2,11.2,0,0,0,378,100.8H361.2v-56a11.2,11.2,0,0,0-11.38-11.38q-.52,0-1.05,0ZM333.2,123.2h33.6v33.6H333.2Zm11.55,56h10.5c5.16,39.8,10.86,79.12,18.55,117.6H326c7.77-38.46,13.56-77.8,18.73-117.6Zm-23.45,140h57.22c4.65,20.85,9.92,41.35,16.1,61.6H305C311.25,360.59,316.61,340,321.3,319.2Z" transform="translate(-221.12 -33.41)"/></svg>