<svg id="Layer_1" data-name="Layer 1" xmlns="http://www.w3.org/2000/svg" width="524.99" height="525" viewBox="0 0 524.99 525"><defs><style>.cls-1{fill-rule:evenodd;}</style></defs><path class="cls-1" d="M179.38,542.5a17.51,17.51,0,0,0,17.5-17.5V398.12a48.13,48.13,0,1,1,96.25,0V525a17.51,17.51,0,0,0,17.5,17.5h83.13a17.51,17.51,0,0,0,17.5-17.5V398.12a48.13,48.13,0,1,1,96.25,0V525A17.5,17.5,0,0,0,525,542.5h70a17.49,17.49,0,0,0,17.44-18.74l-35-490A17.48,17.48,0,0,0,560,17.5H472.5A17.51,17.51,0,0,0,455,35v78.75H411.25V35a17.51,17.51,0,0,0-17.5-17.5h-87.5A17.51,17.51,0,0,0,288.75,35v78.75H245V35a17.51,17.51,0,0,0-17.5-17.5H140a17.48,17.48,0,0,0-17.45,16.26l-35,490A17.49,17.49,0,0,0,105,542.5Z" transform="translate(-87.51 -17.5)"/></svg>