<svg id="Layer_1" data-name="Layer 1" xmlns="http://www.w3.org/2000/svg" width="477.19" height="527.53" viewBox="0 0 477.19 527.53"><path d="M580.72,148.4c-19.6-33.6-71.12-42-137.76-28C422.24,56.56,389.2,16.24,350,16.24S277.76,56,257,120.4c-66.08-14.56-118.16-5.6-137.76,28-8.4,14-10.08,32.48-5,52.08,6.72,24.64,24.08,52.08,49.28,79.52-25.76,27.44-43.12,54.88-49.28,79.52-5,19.6-3.36,38.08,5.05,52.08,13.44,23,42.55,34.16,81.19,34.16A262.81,262.81,0,0,0,257,439.05c20.73,64.39,53.77,104.72,93,104.72S422.24,504,443,439.61c20.16,4.48,39.76,6.71,56.55,6.71,38.65,0,67.2-11.2,81.2-34.16,8.4-14.56,10.08-32.48,5-52.07C579,335.44,561.68,308,536.48,280.57c25.76-27.45,43.12-54.88,49.28-79.52,5-20.17,3.37-38.65-5-52.65Zm-285-36.4C311.36,73.36,331.52,50.4,350,50.4s38.64,23,54.32,61.6a158.29,158.29,0,0,1,6.16,17.36,508.6,508.6,0,0,0-60.48,23,508.6,508.6,0,0,0-60.48-23c2.24-6.16,3.92-12.32,6.16-17.36ZM431.76,280q0,23.52-1.68,45.36c-12.32,8.4-25.2,16.24-39.2,24.08-13.44,7.84-27.44,15.12-40.88,21.28-13.44-6.72-27.44-13.44-40.88-21.28-14-7.84-26.88-16.24-39.2-24.08-1.12-14.56-1.68-30.24-1.68-45.36q0-23.52,1.68-45.36c12.32-8.4,25.2-16.24,39.2-24.07,13.44-7.84,27.44-15.13,40.88-21.29,13.44,6.72,27.44,13.44,40.88,21.29,14,7.83,26.88,16.23,39.2,24.07Q431.76,256.48,431.76,280Zm33-20.16q12.6,10.08,23.52,20.16-10.92,10.08-23.52,20.16c0-6.72.56-13.44.56-20.16S465.36,266.56,464.8,259.84ZM425,368.48c-1.68,10.08-3.36,20.16-5.6,29.68-9.52-2.8-19-6.16-29.13-10.08,5.61-2.8,11.77-6.16,17.36-9.52A138.19,138.19,0,0,0,425,368.48ZM309.68,388.64a300.17,300.17,0,0,1-29.12,10.08c-2.24-9.52-3.93-19.6-5.61-29.68,5.61,3.36,11.77,6.72,17.36,10.08s11.77,6.16,17.37,9.52ZM235.2,300.16Q222.6,290.08,211.68,280q10.92-10.08,23.52-20.16c0,6.72-.56,13.44-.56,20.16S234.64,293.44,235.2,300.16ZM275,191.52c1.68-10.08,3.36-20.16,5.6-29.68,9.52,2.8,19,6.16,29.12,10.08-5.6,2.8-11.76,6.16-17.36,9.52A138.81,138.81,0,0,0,275,191.52Zm132.72-10.64c-5.6-3.36-11.76-6.16-17.36-9.52a299.24,299.24,0,0,1,29.12-10.08c2.24,9.52,3.92,19.61,5.6,29.68-5.6-3.36-11.76-6.72-17.36-10.08ZM148.4,165.2c6.72-11.76,25.2-17.92,51-17.92a197.47,197.47,0,0,1,30.24,2.24l18.48,3.36A506.56,506.56,0,0,0,238,215.6a469.81,469.81,0,0,0-49.84,40.32c-22.4-24.65-36.4-47-40.88-65-3.36-10.07-2.8-19,1.12-25.75Zm81.2,245.28c-41.44,6.16-72.24.56-81.2-15.68-3.92-6.72-4.48-15.68-1.68-26.32,4.48-17.36,18.48-40.32,40.88-65a520.86,520.86,0,0,0,49.84,40.32,490,490,0,0,0,10.08,62.72,168.3,168.3,0,0,1-17.92,3.92ZM404.32,448c-15.68,38.64-35.84,61.6-54.32,61.6s-38.64-23-54.32-61.6a158.29,158.29,0,0,1-6.16-17.36,508.6,508.6,0,0,0,60.48-23,508.6,508.6,0,0,0,60.48,23c-2.24,6.16-3.92,12.32-6.16,17.36ZM551.6,394.8c-9,15.68-39.76,21.28-81.2,15.68l-18.48-3.36A506.56,506.56,0,0,0,462,344.4a472.32,472.32,0,0,0,49.84-40.32c22.4,24.64,36.4,47,40.88,65,3.36,10.08,2.8,19-1.12,25.76Zm1.68-203.28c-4.48,17.36-18.48,40.32-40.88,65a520.86,520.86,0,0,0-49.84-40.32,490,490,0,0,0-10.08-62.72L471,150.08c41.45-6.16,72.24-.55,81.2,15.68,3.36,6.16,3.92,15.12,1.12,25.76Z" transform="translate(-111.41 -16.24)"/><path d="M350,228.48A51.52,51.52,0,1,0,401.52,280,51.38,51.38,0,0,0,350,228.48Zm0,69.44A17.92,17.92,0,1,1,367.92,280,17.69,17.69,0,0,1,350,297.92Z" transform="translate(-111.41 -16.24)"/></svg>