<svg id="Layer_1" data-name="Layer 1" xmlns="http://www.w3.org/2000/svg" width="490" height="455" viewBox="0 0 490 455"><defs><style>.cls-1{fill-rule:evenodd;}</style></defs><path d="M360.6,167.17a17.5,17.5,0,0,1,31.31,15.65l-52.5,105a17.5,17.5,0,1,1-31.31-15.65Z" transform="translate(-105 -52.5)"/><path d="M296.75,175.75a17.51,17.51,0,0,1,0,24.75l-27,27,27,27A17.5,17.5,0,0,1,272,279.25l-39.38-39.37a17.52,17.52,0,0,1,0-24.76L272,175.75A17.51,17.51,0,0,1,296.75,175.75Z" transform="translate(-105 -52.5)"/><path d="M403.25,200.5A17.5,17.5,0,0,1,428,175.75l39.38,39.37a17.52,17.52,0,0,1,0,24.76L428,279.25a17.5,17.5,0,0,1-24.75-24.75l27-27Z" transform="translate(-105 -52.5)"/><path class="cls-1" d="M157.5,52.5A52.49,52.49,0,0,0,105,105V350a52.49,52.49,0,0,0,52.5,52.5h105V420A52.49,52.49,0,0,0,210,472.5V490a17.51,17.51,0,0,0,17.5,17.5h245A17.51,17.51,0,0,0,490,490V472.5A52.49,52.49,0,0,0,437.5,420V402.5h105A52.49,52.49,0,0,0,595,350V105a52.49,52.49,0,0,0-52.5-52.5ZM402.5,420V402.5h-105V420Zm-140,35A17.51,17.51,0,0,0,245,472.5H455A17.51,17.51,0,0,0,437.5,455Zm-105-87.5A17.51,17.51,0,0,1,140,350V105a17.51,17.51,0,0,1,17.5-17.5h385A17.51,17.51,0,0,1,560,105V350a17.51,17.51,0,0,1-17.5,17.5Z" transform="translate(-105 -52.5)"/></svg>