<svg id="Layer_1" data-name="Layer 1" xmlns="http://www.w3.org/2000/svg" width="507.5" height="490" viewBox="0 0 507.5 490"><path d="M376.25,385A26.25,26.25,0,1,1,350,358.75,26.25,26.25,0,0,1,376.25,385" transform="translate(-96.25 -35)"/><path d="M420,428.75H280a17.5,17.5,0,1,0,0,35h35V525h70V463.75h35a17.5,17.5,0,1,0,0-35Z" transform="translate(-96.25 -35)"/><path d="M542.5,332.5a26.25,26.25,0,1,1-26.25-26.25A26.25,26.25,0,0,1,542.5,332.5" transform="translate(-96.25 -35)"/><path d="M586.25,376.25h-140a17.5,17.5,0,1,0,0,35h35V472.5h70V411.25h35a17.5,17.5,0,1,0,0-35Z" transform="translate(-96.25 -35)"/><path d="M210,332.5a26.25,26.25,0,1,1-26.25-26.25A26.25,26.25,0,0,1,210,332.5" transform="translate(-96.25 -35)"/><path d="M113.75,411.25h35V472.5h70V411.25h35a17.5,17.5,0,1,0,0-35h-140a17.5,17.5,0,1,0,0,35Z" transform="translate(-96.25 -35)"/><path d="M201.25,175H262.5a289.54,289.54,0,0,1,5.07-47.43A167.13,167.13,0,0,1,227,97.39,154.92,154.92,0,0,0,201.25,175Z" transform="translate(-96.25 -35)"/><path d="M267.57,240.19a289.29,289.29,0,0,1-5.07-47.69H201.25A154.9,154.9,0,0,0,227,270.11a167.72,167.72,0,0,1,40.6-29.92Z" transform="translate(-96.25 -35)"/><path d="M314.21,332.5c-18.38-14.88-33.34-41-42.35-74.11h0a152.83,152.83,0,0,0-34,26.25,148.77,148.77,0,0,0,76.39,47.86Z" transform="translate(-96.25 -35)"/><path d="M237.82,82.86a152.83,152.83,0,0,0,34,26.25c8.75-33.07,24-59.23,42.35-74.11h0a148.77,148.77,0,0,0-76.39,47.86Z" transform="translate(-96.25 -35)"/><path d="M498.75,175A154.92,154.92,0,0,0,473,97.39a167.13,167.13,0,0,1-40.59,30.18A289.54,289.54,0,0,1,437.5,175Z" transform="translate(-96.25 -35)"/><path d="M385.79,35c18.38,14.88,33.34,41,42.35,74.11h0a152.83,152.83,0,0,0,34-26.25A148.77,148.77,0,0,0,385.79,35Z" transform="translate(-96.25 -35)"/><path d="M462.18,284.64a152.83,152.83,0,0,0-34-26.25c-8.75,33.07-24,59.24-42.35,74.11h0a148.7,148.7,0,0,0,76.39-47.86Z" transform="translate(-96.25 -35)"/><path d="M358.75,40.6v88.2A161.87,161.87,0,0,0,412,117.16C401.36,76.48,381.59,46.81,358.75,40.6Z" transform="translate(-96.25 -35)"/><path d="M288.05,117.16a161.87,161.87,0,0,0,53.2,11.64V40.6C318.41,46.81,298.64,76.47,288.05,117.16Z" transform="translate(-96.25 -35)"/><path d="M358.75,220.68a177.68,177.68,0,0,1,57.05,11.9A273.62,273.62,0,0,0,420,192.5H358.75Z" transform="translate(-96.25 -35)"/><path d="M284.2,232.57a178.21,178.21,0,0,1,57.05-11.9V192.5H280a274.86,274.86,0,0,0,4.2,40.07Z" transform="translate(-96.25 -35)"/><path d="M358.75,326.9c22.84-6.21,42.61-35.88,53.2-76.56a161.87,161.87,0,0,0-53.2-11.64Z" transform="translate(-96.25 -35)"/><path d="M341.25,326.9V238.7a161.87,161.87,0,0,0-53.2,11.64c10.59,40.69,30.36,70.35,53.2,76.56Z" transform="translate(-96.25 -35)"/><path d="M341.25,147.26A177.62,177.62,0,0,1,284.2,135a272.41,272.41,0,0,0-4.2,40h61.25Z" transform="translate(-96.25 -35)"/><path d="M358.75,175H420a273.17,273.17,0,0,0-4.2-39.73,177.73,177.73,0,0,1-57.05,12Z" transform="translate(-96.25 -35)"/><path d="M498.75,192.5H437.5a289.54,289.54,0,0,1-5.07,47.43A167.13,167.13,0,0,1,473,270.11a154.92,154.92,0,0,0,25.73-77.61Z" transform="translate(-96.25 -35)"/></svg>