<svg id="Layer_1" data-name="Layer 1" xmlns="http://www.w3.org/2000/svg" width="489.07" height="272.77" viewBox="0 0 489.07 272.77"><path d="M580.54,299.6a14,14,0,0,0-14,14,36.44,36.44,0,0,1-36.4,36.4h-22.7L517,325.86a14,14,0,1,0-26-10.29L477.33,350H444.42L454,325.86a14,14,0,0,0-26-10.28L414.32,350H381.4l9.53-24.14a14,14,0,1,0-26-10.28L351.31,350H318.4l9.53-24.14a14,14,0,1,0-26-10.29L288.29,350H234.14a64,64,0,0,0,11.33-36.4,132.13,132.13,0,0,1,132-132h57.08a131,131,0,0,1,76.53,24.44,14,14,0,1,0,16.26-22.8,161.34,161.34,0,0,0-20.75-12.53c-2-6.82-4.64-14.8-11.48-20.54-7.43-6.24-16.63-7.18-24-7.94-3.2-.33-7.58-.77-9-1.59s-4-4.47-5.75-6.9c-4.36-6.07-9.8-13.63-19-17s-18-1-25.18.78c-3.14.8-7.44,1.88-9.14,1.6-1.47-.26-5.18-2.78-7.63-4.44-6.2-4.22-13.92-9.48-23.78-9.48s-17.59,5.26-23.79,9.48c-2.46,1.66-6.16,4.18-7.62,4.44-1.72.3-6-.8-9.15-1.59-7.18-1.82-16.12-4.09-25.17-.78-9.21,3.34-14.63,10.9-19,17-1.75,2.44-4.39,6.11-5.76,6.9s-5.8,1.27-9,1.6c-7.4.76-16.6,1.69-24,7.93a27.68,27.68,0,0,0-4.59,4.95c-79.19,10.76-138,77.63-138,158.48a64.47,64.47,0,0,0,64.4,64.4H530.13a64.48,64.48,0,0,0,64.4-64.4,14,14,0,0,0-14-14Zm-397.61,26A96.85,96.85,0,0,1,222.7,247a13.58,13.58,0,0,0,1.68-1.16,96.56,96.56,0,0,1,11.78-7.13,159,159,0,0,0-18.69,74.93,36.43,36.43,0,0,1-21.77,33.3,24.33,24.33,0,0,1-12.77-21.32Zm92-155.49c6.35-.65,13.55-1.39,20.18-5.22s10.76-9.64,14.47-14.79c1.71-2.38,4.57-6.36,5.72-7,1.44-.31,6.08.87,8.84,1.57,6.22,1.57,13.26,3.37,20.85,2,7.42-1.3,13.33-5.33,18.55-8.87,2.46-1.68,6.58-4.48,8-4.64,1.52.16,5.64,3,8.1,4.64,5.22,3.55,11.13,7.57,18.54,8.87,7.57,1.34,14.63-.46,20.85-2,2.76-.7,7.44-1.92,8.64-1.64,1.35.67,4.21,4.66,5.93,7,.84,1.17,1.72,2.38,2.63,3.59-.56,0-1.11-.06-1.68-.06H377.46a159.47,159.47,0,0,0-114,47.93,128.54,128.54,0,0,0-15,2.88,32.56,32.56,0,0,0,6-5.36c4.92-5.85,6.88-12.81,8.61-18.95.59-2.07,1.47-5.17,2.23-7,0-.07.06-.12.08-.18a4.77,4.77,0,0,1,.67-1.22c1.26-.81,6.08-1.3,8.95-1.59ZM133.46,313.6A131.16,131.16,0,0,1,213.4,192.26a29.68,29.68,0,0,0-8.24,9c-4.85,8.38-4.18,17.6-3.64,25,0,.54.07,1,.11,1.56a124.71,124.71,0,0,0-46.7,97.74,51.88,51.88,0,0,0,5.45,23.12,36.42,36.42,0,0,1-26.92-35.09Z" transform="translate(-105.46 -105.23)"/><path d="M557.66,265.91a14,14,0,0,0,26.11-10.13A158.84,158.84,0,0,0,570,228.43a14,14,0,1,0-23.68,14.93,132.21,132.21,0,0,1,11.34,22.55Z" transform="translate(-105.46 -105.23)"/><path d="M365.27,224.93a14,14,0,1,1-14-14,14,14,0,0,1,14,14" transform="translate(-105.46 -105.23)"/><path d="M421.51,265.88a14,14,0,1,1-14-14,14,14,0,0,1,14,14" transform="translate(-105.46 -105.23)"/><path d="M487.15,234.85a14,14,0,1,1-14-14,14,14,0,0,1,14,14" transform="translate(-105.46 -105.23)"/></svg>