<svg version="1.1" xmlns="http://www.w3.org/2000/svg" xmlns:xlink="http://www.w3.org/1999/xlink" width="290.41667" height="240.51041" viewBox="0,0,290.41667,240.51041"><g transform="translate(-94.79166,-93.40625)"><g data-paper-data="{&quot;isPaintingLayer&quot;:true}" fill="none" fill-rule="nonzero" stroke="#000000" stroke-linejoin="miter" stroke-miterlimit="10" stroke-dasharray="" stroke-dashoffset="0" style="mix-blend-mode: normal"><path d="M97.29167,331.41667v-38.33333h285.41667v38.33333z" stroke-width="5" stroke-linecap="butt"/><path d="M121.45834,292.91667v-177.91667h14.58333v177.91667z" stroke-width="5" stroke-linecap="butt"/><path d="M121.625,115h136.25v14.58333h-136.25z" stroke-width="5" stroke-linecap="butt"/><path d="M168.375,130l-32,32" stroke-width="5" stroke-linecap="round"/><path d="M156.375,129.75l-19.75,19.75" stroke-width="5" stroke-linecap="round"/><path d="M248.625,129.75v31.75" stroke-width="5" stroke-linecap="round"/><path d="M236.125,175c0,-6.90356 5.59644,-12.5 12.5,-12.5c6.90356,0 12.5,5.59644 12.5,12.5c0,6.90356 -5.59644,12.5 -12.5,12.5c-6.90356,0 -12.5,-5.59644 -12.5,-12.5z" stroke-width="5" stroke-linecap="butt"/><path d="M248.63258,188.206v32.25l-5.25,36.75" stroke-width="5" stroke-linecap="round"/><path d="M248.56343,220.46663l6.97872,36.50409" stroke-width="5" stroke-linecap="round"/><path d="M240.925,224.84848l7.72727,-28.93939l7.57576,28.48485" stroke-width="5" stroke-linecap="round"/><path d="M237.5022,96.67818c-0.0077,1.13002 1.57422,2.0569 3.53331,2.07024c1.95909,0.01334 3.55349,-0.8919 3.56119,-2.02192c0.0077,-1.13002 -1.57422,-2.0569 -3.53331,-2.07024c-1.95909,-0.01334 -3.55349,0.8919 -3.56119,2.02192z" stroke-width="2.5" stroke-linecap="butt"/><path d="M246.6881,108.1522l-0.59208,3.65814l-2.73298,2.37211" stroke-width="2.5" stroke-linecap="round"/><path d="M253.24058,109.43496c-0.89941,1.38914 -3.80482,0.37485 -6.4894,-2.26547c-2.68458,-2.64032 -4.13175,-5.90685 -3.23234,-7.29599c0.89941,-1.38914 3.80482,-0.37485 6.4894,2.26547c2.68458,2.64032 4.13175,5.90685 3.23234,7.29599z" stroke-width="2.5" stroke-linecap="butt"/><path d="M253.13904,106.15426l7.86902,5.7793l-9.84089,-1.99622" stroke-width="2.5" stroke-linecap="round"/><path d="M238.59508,95.24514l-3.90683,2.17344l2.94941,0.3001" stroke-width="2.5" stroke-linecap="round"/></g></g></svg>