<svg version="1.1" xmlns="http://www.w3.org/2000/svg" xmlns:xlink="http://www.w3.org/1999/xlink" width="290.41667" height="221.41667" viewBox="0,0,290.41667,221.41667"><g transform="translate(-94.79167,-112.5)"><g data-paper-data="{&quot;isPaintingLayer&quot;:true}" fill="none" fill-rule="nonzero" stroke="#000000" stroke-width="5" stroke-linejoin="miter" stroke-miterlimit="10" stroke-dasharray="" stroke-dashoffset="0" style="mix-blend-mode: normal"><path d="M97.29168,331.41667v-38.33333h285.41667v38.33333z" stroke-linecap="butt"/><path d="M121.45835,292.91667v-177.91667h14.58333v177.91667z" stroke-linecap="butt"/><path d="M121.62501,115h136.25v14.58333h-136.25z" stroke-linecap="butt"/><path d="M168.37501,130l-32,32" stroke-linecap="round"/><path d="M156.375,129.75l-19.75,19.75" stroke-linecap="round"/><path d="M248.62501,129.75v31.75" stroke-linecap="round"/><path d="M236.12501,175c0,-6.90356 5.59644,-12.5 12.5,-12.5c6.90356,0 12.5,5.59644 12.5,12.5c0,6.90356 -5.59644,12.5 -12.5,12.5c-6.90356,0 -12.5,-5.59644 -12.5,-12.5z" stroke-linecap="butt"/><path d="M248.63258,188.206v32.25l-5.25,36.75" stroke-linecap="round"/></g></g></svg>