<svg version="1.1" xmlns="http://www.w3.org/2000/svg" xmlns:xlink="http://www.w3.org/1999/xlink" width="290.41667" height="298.5174" viewBox="0,0,290.41667,298.5174"><g transform="translate(-94.79168,-35.39926)"><g data-paper-data="{&quot;isPaintingLayer&quot;:true}" fill-rule="nonzero" stroke-linejoin="miter" stroke-miterlimit="10" stroke-dasharray="" stroke-dashoffset="0" style="mix-blend-mode: normal"><path d="M97.29169,331.41667v-38.33333h285.41667v38.33333z" fill="none" stroke="#000000" stroke-width="5" stroke-linecap="butt"/><path d="M121.45836,292.91667v-177.91667h14.58333v177.91667z" fill="none" stroke="#000000" stroke-width="5" stroke-linecap="butt"/><path d="M121.62502,115h136.25v14.58333h-136.25z" fill="none" stroke="#000000" stroke-width="5" stroke-linecap="butt"/><path d="M168.37502,130l-32,32" fill="none" stroke="#000000" stroke-width="5" stroke-linecap="round"/><path d="M136.625,149.5l19.75,-19.75" fill="none" stroke="#000000" stroke-width="5" stroke-linecap="round"/><path d="M248.62502,129.75v31.75" fill="none" stroke="#000000" stroke-width="5" stroke-linecap="round"/><path d="M236.12502,175c0,-6.90356 5.59644,-12.5 12.5,-12.5c6.90356,0 12.5,5.59644 12.5,12.5c0,6.90356 -5.59644,12.5 -12.5,12.5c-6.90356,0 -12.5,-5.59644 -12.5,-12.5z" fill="none" stroke="#000000" stroke-width="5" stroke-linecap="butt"/><path d="M248.63259,188.206v32.25l-5.25,36.75" fill="none" stroke="#000000" stroke-width="5" stroke-linecap="round"/><path d="M255.54217,256.97072l-6.97872,-36.50409" fill="none" stroke="#000000" stroke-width="5" stroke-linecap="round"/><path d="M240.92501,224.84848l7.72727,-28.93939l7.57576,28.48485" fill="none" stroke="#000000" stroke-width="5" stroke-linecap="round"/><path d="M241.06341,94.65626c1.95909,0.01334 3.54101,0.94022 3.53331,2.07024c-0.0077,1.13002 -1.6021,2.03526 -3.56119,2.02192c-1.95909,-0.01334 -3.54101,-0.94022 -3.53331,-2.07024c0.0077,-1.13002 1.6021,-2.03526 3.56119,-2.02192z" fill="none" stroke="#000000" stroke-width="2.5" stroke-linecap="butt"/><path d="M246.68811,108.1522l-0.59208,3.65814l-2.73298,2.37211" fill="none" stroke="#000000" stroke-width="2.5" stroke-linecap="round"/><path d="M253.2406,109.43496c-0.89941,1.38914 -3.80482,0.37485 -6.4894,-2.26547c-2.68458,-2.64032 -4.13175,-5.90685 -3.23234,-7.29599c0.89941,-1.38914 3.80482,-0.37485 6.4894,2.26547c2.68458,2.64032 4.13175,5.90685 3.23234,7.29599z" fill="none" stroke="#000000" stroke-width="2.5" stroke-linecap="butt"/><path d="M253.13906,106.15426l7.86902,5.7793l-9.84089,-1.99622" fill="none" stroke="#000000" stroke-width="2.5" stroke-linecap="round"/><path d="M237.63768,97.71868l-2.94941,-0.3001l3.90683,-2.17344" fill="none" stroke="#000000" stroke-width="2.5" stroke-linecap="round"/><text transform="translate(145.33239,64.60036) scale(0.80003,0.80003)" font-size="40" xml:space="preserve" fill="#000000" fill-rule="nonzero" stroke="none" stroke-width="1" stroke-linecap="butt" stroke-linejoin="miter" stroke-miterlimit="10" stroke-dasharray="" stroke-dashoffset="0" font-family="Serif" font-weight="normal" text-anchor="start" style="mix-blend-mode: normal"><tspan x="0" dy="0">GAME OVER</tspan></text></g></g></svg>